<svg width="20" height="20" viewBox="0 0 20 20" fill="none" xmlns="http://www.w3.org/2000/svg">
<path d="M20 20H0V0H20V20Z" stroke="#E5E7EB"/>
<g clip-path="url(#clip0_1_319)">
<g clip-path="url(#clip1_1_319)">
<path d="M6.57031 15.0352C5.98438 14.8242 5.33203 14.9141 4.82812 15.2852C4.50781 15.5195 3.95703 15.8633 3.28906 16.1719C3.50781 15.5977 3.67578 14.9492 3.73047 14.2422C3.76953 13.7383 3.60156 13.2383 3.26953 12.8555C2.35938 11.8281 1.875 10.625 1.875 9.375C1.875 6.26953 5.12891 3.125 10 3.125C14.8711 3.125 18.125 6.26953 18.125 9.375C18.125 12.4805 14.8711 15.625 10 15.625C8.76562 15.625 7.60547 15.4102 6.57031 15.0352ZM1.02734 16.5547C0.964844 16.6602 0.898438 16.7656 0.828125 16.8711L0.816406 16.8906C0.753906 16.9805 0.691406 17.0703 0.628906 17.1602C0.492188 17.3438 0.34375 17.5234 0.1875 17.6875C0.00781251 17.8672 -0.0429688 18.1328 0.0546875 18.3672C0.152344 18.6016 0.378906 18.7539 0.632812 18.7539C0.832031 18.7539 1.03125 18.7422 1.23047 18.7227L1.25781 18.7188C1.42969 18.6992 1.60156 18.6758 1.77344 18.6445C1.80469 18.6406 1.83594 18.6328 1.86719 18.625C2.5625 18.4883 3.23047 18.2539 3.82422 17.9961C4.71875 17.6055 5.48047 17.1406 5.94531 16.8008C7.1875 17.25 8.5625 17.5 10.0117 17.5C15.5352 17.5 20.0117 13.8633 20.0117 9.375C20.0117 4.88672 15.5234 1.25 10 1.25C4.47656 1.25 0 4.88672 0 9.375C0 11.1367 0.691406 12.7656 1.86328 14.0977C1.78906 15.0547 1.41797 15.9062 1.02734 16.5547ZM5.625 10.625C5.95652 10.625 6.27446 10.4933 6.50888 10.2589C6.7433 10.0245 6.875 9.70652 6.875 9.375C6.875 9.04348 6.7433 8.72554 6.50888 8.49112C6.27446 8.2567 5.95652 8.125 5.625 8.125C5.29348 8.125 4.97554 8.2567 4.74112 8.49112C4.5067 8.72554 4.375 9.04348 4.375 9.375C4.375 9.70652 4.5067 10.0245 4.74112 10.2589C4.97554 10.4933 5.29348 10.625 5.625 10.625ZM11.25 9.375C11.25 9.04348 11.1183 8.72554 10.8839 8.49112C10.6495 8.2567 10.3315 8.125 10 8.125C9.66848 8.125 9.35054 8.2567 9.11612 8.49112C8.8817 8.72554 8.75 9.04348 8.75 9.375C8.75 9.70652 8.8817 10.0245 9.11612 10.2589C9.35054 10.4933 9.66848 10.625 10 10.625C10.3315 10.625 10.6495 10.4933 10.8839 10.2589C11.1183 10.0245 11.25 9.70652 11.25 9.375ZM14.375 10.625C14.7065 10.625 15.0245 10.4933 15.2589 10.2589C15.4933 10.0245 15.625 9.70652 15.625 9.375C15.625 9.04348 15.4933 8.72554 15.2589 8.49112C15.0245 8.2567 14.7065 8.125 14.375 8.125C14.0435 8.125 13.7255 8.2567 13.4911 8.49112C13.2567 8.72554 13.125 9.04348 13.125 9.375C13.125 9.70652 13.2567 10.0245 13.4911 10.2589C13.7255 10.4933 14.0435 10.625 14.375 10.625Z" fill="black"/>
</g>
</g>
<defs>
<clipPath id="clip0_1_319">
<rect width="20" height="20" fill="white"/>
</clipPath>
<clipPath id="clip1_1_319">
<path d="M0 0H20V20H0V0Z" fill="white"/>
</clipPath>
</defs>
</svg>
