<svg width="48" height="48" viewBox="0 0 48 48" fill="none" xmlns="http://www.w3.org/2000/svg">
<path d="M40 0C44.4183 0 48 3.58172 48 8V40C48 44.4183 44.4183 48 40 48H8C3.58172 48 0 44.4183 0 40V8C5.15405e-07 3.58172 3.58172 0 8 0H40Z" fill="#DBEAFE"/>
<path d="M40 0C44.4183 0 48 3.58172 48 8V40C48 44.4183 44.4183 48 40 48H8C3.58172 48 0 44.4183 0 40V8C5.15405e-07 3.58172 3.58172 0 8 0H40Z" stroke="#E5E7EB"/>
<path d="M35.4375 36H12.5625V12H35.4375V36Z" stroke="#E5E7EB"/>
<g clip-path="url(#clip0_1_341)">
<path d="M35.4375 24.2719C35.4375 30.9047 30.8953 35.625 24.1875 35.625C17.7563 35.625 12.5625 30.4312 12.5625 24C12.5625 17.5688 17.7563 12.375 24.1875 12.375C27.3188 12.375 29.9531 13.5234 31.9828 15.4172L28.8187 18.4594C24.6797 14.4656 16.9828 17.4656 16.9828 24C16.9828 28.0547 20.2219 31.3406 24.1875 31.3406C28.7906 31.3406 30.5156 28.0406 30.7875 26.3297H24.1875V22.3312H35.2547C35.3625 22.9266 35.4375 23.4984 35.4375 24.2719Z" fill="black"/>
</g>
<defs>
<clipPath id="clip0_1_341">
<path d="M12.5625 12H35.4375V36H12.5625V12Z" fill="white"/>
</clipPath>
</defs>
</svg>
