<svg width="48" height="48" viewBox="0 0 48 48" fill="none" xmlns="http://www.w3.org/2000/svg">
<path d="M40 0C44.4183 0 48 3.58172 48 8V40C48 44.4183 44.4183 48 40 48H8C3.58172 48 0 44.4183 0 40V8C5.15405e-07 3.58172 3.58172 0 8 0H40Z" fill="#E0E7FF"/>
<path d="M40 0C44.4183 0 48 3.58172 48 8V40C48 44.4183 44.4183 48 40 48H8C3.58172 48 0 44.4183 0 40V8C5.15405e-07 3.58172 3.58172 0 8 0H40Z" stroke="#E5E7EB"/>
<path d="M34.5 36H13.5V12H34.5V36Z" stroke="#E5E7EB"/>
<g clip-path="url(#clip0_1_363)">
<path d="M13.5 13.5H23.5594V23.5594H13.5V13.5ZM24.4406 13.5H34.5V23.5594H24.4406V13.5ZM13.5 24.4406H23.5594V34.5H13.5V24.4406ZM24.4406 24.4406H34.5V34.5H24.4406V24.4406Z" fill="black"/>
</g>
<defs>
<clipPath id="clip0_1_363">
<path d="M13.5 12H34.5V36H13.5V12Z" fill="white"/>
</clipPath>
</defs>
</svg>
